<svg preserveAspectRatio="none" overflow="visible" style="display: block;" width="51.2" height="51.2001" viewBox="0 0 51.2 51.2001" fill="none" xmlns="http://www.w3.org/2000/svg">
<g id="Group 245">
<path id="Subtract" d="M36.8 36.8001C45.3385 34.7447 51.2 30.5013 51.2 25.6001C51.2 20.6989 45.3385 16.4555 36.8 14.4001C37.6784 17.7702 38.1728 21.5742 38.1728 25.6001C38.1728 29.626 37.6784 33.43 36.8 36.8001Z" fill="white"/>
<path id="Subtract_2" d="M14.4 36.8001C5.86153 34.7447 6.10352e-06 30.5013 6.10352e-06 25.6001C6.10352e-06 20.6989 5.86153 16.4555 14.4 14.4001C13.5216 17.7702 13.0272 21.5742 13.0272 25.6001C13.0272 29.626 13.5216 33.43 14.4 36.8001Z" fill="white"/>
<path id="Subtract_3" d="M14.4 36.8001C16.4554 45.3386 20.6988 51.2001 25.6 51.2001C30.5012 51.2001 34.7446 45.3386 36.8 36.8001C33.4299 37.6785 29.6259 38.1729 25.6 38.1729C21.5741 38.1729 17.7701 37.6785 14.4 36.8001Z" fill="#D71D36"/>
<path id="Subtract_4" d="M14.4 14.4001C16.4554 5.86162 20.6988 9.74333e-05 25.6 9.76563e-05C30.5012 9.78792e-05 34.7446 5.86162 36.8 14.4001C33.4299 13.5217 29.6259 13.0273 25.6 13.0273C21.5741 13.0273 17.7701 13.5217 14.4 14.4001Z" fill="#D71D36"/>
</g>
</svg>
