<svg width="64" height="64" viewBox="0 0 64 64" fill="none" xmlns="http://www.w3.org/2000/svg">
<path d="M43.2001 43.1998C51.7385 41.1444 57.6001 36.901 57.6001 31.9998C57.6001 27.0986 51.7385 22.8552 43.2001 20.7998C44.0785 24.1699 44.5728 27.9739 44.5728 31.9998C44.5728 36.0257 44.0785 39.8297 43.2001 43.1998Z" fill="white"/>
<path d="M20.8 43.1998C12.2615 41.1444 6.40002 36.901 6.40002 31.9998C6.40002 27.0986 12.2615 22.8552 20.8 20.7998C19.9216 24.1699 19.4272 27.9739 19.4272 31.9998C19.4272 36.0257 19.9216 39.8297 20.8 43.1998Z" fill="white"/>
<path d="M20.8 43.2002C22.8554 51.7387 27.0988 57.6002 32 57.6002C36.9013 57.6002 41.1447 51.7387 43.2 43.2002C39.83 44.0786 36.026 44.573 32 44.573C27.9741 44.573 24.1701 44.0786 20.8 43.2002Z" fill="#D71D36"/>
<path d="M20.8 20.7999C22.8554 12.2614 27.0988 6.3999 32 6.3999C36.9013 6.3999 41.1447 12.2614 43.2 20.7999C39.83 19.9215 36.026 19.4271 32 19.4271C27.9741 19.4271 24.1701 19.9215 20.8 20.7999Z" fill="#D71D36"/>
</svg>
