<svg preserveAspectRatio="none" overflow="visible" style="display: block;" width="28" height="28" viewBox="0 0 28 28" fill="none" xmlns="http://www.w3.org/2000/svg">
<g id="Material Symbols Rounded / public (filled)">
<path id="Vector" d="M9.44967 24.7476C8.03023 24.1351 6.79551 23.3038 5.74551 22.2538C4.69551 21.2038 3.86426 19.9691 3.25176 18.5497C2.63926 17.1302 2.33301 15.6136 2.33301 13.9997C2.33301 12.3858 2.63926 10.8691 3.25176 9.44967C3.86426 8.03023 4.69551 6.79551 5.74551 5.74551C6.79551 4.69551 8.03023 3.86426 9.44967 3.25176C10.8691 2.63926 12.3858 2.33301 13.9997 2.33301C15.6136 2.33301 17.1302 2.63926 18.5497 3.25176C19.9691 3.86426 21.2038 4.69551 22.2538 5.74551C23.3038 6.79551 24.1351 8.03023 24.7476 9.44967C25.3601 10.8691 25.6663 12.3858 25.6663 13.9997C25.6663 15.6136 25.3601 17.1302 24.7476 18.5497C24.1351 19.9691 23.3038 21.2038 22.2538 22.2538C21.2038 23.3038 19.9691 24.1351 18.5497 24.7476C17.1302 25.3601 15.6136 25.6663 13.9997 25.6663C12.3858 25.6663 10.8691 25.3601 9.44967 24.7476ZM12.7455 23.8872V21.4955C12.065 21.4955 11.4913 21.2427 11.0247 20.7372C10.558 20.2316 10.3247 19.6386 10.3247 18.958V17.6747L4.34551 11.6955C4.24829 12.0844 4.18023 12.4684 4.14134 12.8476C4.10245 13.2268 4.08301 13.6108 4.08301 13.9997C4.08301 16.5275 4.90454 18.7344 6.54759 20.6205C8.19065 22.5066 10.2566 23.5955 12.7455 23.8872ZM21.3205 20.7372C22.1761 19.8038 22.8226 18.7587 23.2601 17.6018C23.6976 16.4448 23.9163 15.2441 23.9163 13.9997C23.9163 11.9386 23.3525 10.067 22.2247 8.38509C21.0969 6.70315 19.59 5.47329 17.7038 4.69551V5.22051C17.7038 5.90106 17.4705 6.49412 17.0038 6.99967C16.5372 7.50523 15.9636 7.75801 15.283 7.75801H12.7455V10.2955C12.7455 10.6261 12.6143 10.8983 12.3518 11.1122C12.0893 11.3261 11.7927 11.433 11.4622 11.433H9.04134V13.9997H16.5663C16.8969 13.9997 17.1691 14.1261 17.383 14.3788C17.5969 14.6316 17.7038 14.9233 17.7038 15.2538V18.958H18.958C19.5219 18.958 20.0177 19.1233 20.4455 19.4538C20.8733 19.7844 21.165 20.2122 21.3205 20.7372Z" fill="white"/>
</g>
</svg>
