<svg preserveAspectRatio="none" overflow="visible" style="display: block;" width="28" height="28" viewBox="0 0 28 28" fill="none" xmlns="http://www.w3.org/2000/svg">
<g id="Material Symbols Rounded / inventory_2 (filled)">
<path id="Vector" d="M5.24967 25.6668C4.76842 25.6668 4.35649 25.4954 4.01388 25.1526C3.67108 24.81 3.49967 24.3981 3.49967 23.9168V9.82933C3.16912 9.71266 2.89204 9.5047 2.66842 9.20545C2.44481 8.9062 2.33301 8.56 2.33301 8.16683V4.0835C2.33301 3.60225 2.50441 3.19022 2.84722 2.84741C3.18983 2.5048 3.60176 2.3335 4.08301 2.3335H23.9163C24.3976 2.3335 24.8096 2.5048 25.1524 2.84741C25.495 3.19022 25.6663 3.60225 25.6663 4.0835V8.16683C25.6663 8.56 25.5545 8.9062 25.3309 9.20545C25.1073 9.5047 24.8302 9.71266 24.4997 9.82933V23.9168C24.4997 24.3981 24.3284 24.81 23.9858 25.1526C23.643 25.4954 23.2309 25.6668 22.7497 25.6668H5.24967ZM4.08301 8.16683H23.9163V4.0835H4.08301V8.16683ZM11.3747 15.7502H16.6247C16.8726 15.7502 17.0805 15.6658 17.2483 15.497C17.4159 15.3284 17.4997 15.1194 17.4997 14.8699C17.4997 14.6206 17.4159 14.4134 17.2483 14.2481C17.0805 14.0828 16.8726 14.0002 16.6247 14.0002H11.3747C11.1268 14.0002 10.919 14.0846 10.7514 14.2533C10.5836 14.4219 10.4997 14.6309 10.4997 14.8804C10.4997 15.1297 10.5836 15.337 10.7514 15.5022C10.919 15.6675 11.1268 15.7502 11.3747 15.7502Z" fill="white"/>
</g>
</svg>
