<svg preserveAspectRatio="none" overflow="visible" style="display: block;" width="26" height="26" viewBox="0 0 26 26" fill="none" xmlns="http://www.w3.org/2000/svg">
<g id="Icon / check_circle">
<path id="Vector" d="M11.4021 15.4646L8.74792 12.8104C8.58542 12.6479 8.38681 12.5667 8.15208 12.5667C7.91736 12.5667 7.70972 12.6569 7.52917 12.8375C7.36667 13 7.28542 13.1986 7.28542 13.4333C7.28542 13.6681 7.36667 13.8667 7.52917 14.0292L10.8333 17.3604C10.9958 17.5229 11.1854 17.6042 11.4021 17.6042C11.6187 17.6042 11.8083 17.5229 11.9708 17.3604L18.4437 10.8875C18.6243 10.7069 18.7146 10.4993 18.7146 10.2646C18.7146 10.0299 18.6243 9.82222 18.4437 9.64167C18.2632 9.47917 18.051 9.40243 17.8073 9.41146C17.5635 9.42049 17.3604 9.50625 17.1979 9.66875L11.4021 15.4646ZM13 23.8333C11.5194 23.8333 10.1201 23.549 8.80208 22.9802C7.48403 22.4115 6.33299 21.6351 5.34896 20.651C4.36493 19.667 3.58854 18.516 3.01979 17.1979C2.45104 15.8799 2.16667 14.4806 2.16667 13C2.16667 11.5014 2.45104 10.0931 3.01979 8.775C3.58854 7.45694 4.36493 6.31042 5.34896 5.33542C6.33299 4.36042 7.48403 3.58854 8.80208 3.01979C10.1201 2.45104 11.5194 2.16667 13 2.16667C14.4986 2.16667 15.9069 2.45104 17.225 3.01979C18.5431 3.58854 19.6896 4.36042 20.6646 5.33542C21.6396 6.31042 22.4115 7.45694 22.9802 8.775C23.549 10.0931 23.8333 11.5014 23.8333 13C23.8333 14.4806 23.549 15.8799 22.9802 17.1979C22.4115 18.516 21.6396 19.667 20.6646 20.651C19.6896 21.6351 18.5431 22.4115 17.225 22.9802C15.9069 23.549 14.4986 23.8333 13 23.8333Z" fill="#D71D36"/>
</g>
</svg>
